<?xml version="1.0" encoding="utf-8"?>
<!-- Generator: Adobe Illustrator 16.0.0, SVG Export Plug-In . SVG Version: 6.00 Build 0)  -->
<!DOCTYPE svg PUBLIC "-//W3C//DTD SVG 1.1//EN" "http://www.w3.org/Graphics/SVG/1.1/DTD/svg11.dtd">
<svg version="1.1" id="Layer_1" xmlns="http://www.w3.org/2000/svg" xmlns:xlink="http://www.w3.org/1999/xlink" x="0px" y="0px"
	 width="1082.88px" height="768px" viewBox="0 0 1082.88 768" enable-background="new 0 0 1082.88 768" xml:space="preserve">
<g>
	<defs>
		<rect id="SVGID_1_" width="1082.88" height="768"/>
	</defs>
	<clipPath id="SVGID_2_">
		<use xlink:href="#SVGID_1_"  overflow="visible"/>
	</clipPath>
	<g clip-path="url(#SVGID_2_)">
		<defs>
			<rect id="SVGID_3_" width="1082.875" height="768"/>
		</defs>
		<clipPath id="SVGID_4_">
			<use xlink:href="#SVGID_3_"  overflow="visible"/>
		</clipPath>
		<g opacity="0.07" clip-path="url(#SVGID_4_)">
			<g>
				<defs>
					<rect id="SVGID_5_" x="-166.284" y="432" width="241.809" height="209"/>
				</defs>
				<clipPath id="SVGID_6_">
					<use xlink:href="#SVGID_5_"  overflow="visible"/>
				</clipPath>
				<polygon clip-path="url(#SVGID_6_)" fill="none" stroke="#000000" stroke-miterlimit="10" points="-105.543,640.5 
					-165.706,536.5 -105.543,432.5 14.784,432.5 74.947,536.5 14.784,640.5 				"/>
			</g>
		</g>
		<g opacity="0.07" clip-path="url(#SVGID_4_)">
			<g>
				<defs>
					<rect id="SVGID_7_" x="-166.283" y="640" width="241.807" height="211"/>
				</defs>
				<clipPath id="SVGID_8_">
					<use xlink:href="#SVGID_7_"  overflow="visible"/>
				</clipPath>
				<polygon clip-path="url(#SVGID_8_)" fill="none" stroke="#000000" stroke-miterlimit="10" points="-105.543,850.5 
					-165.706,745.5 -105.543,640.5 14.784,640.5 74.947,745.5 14.784,850.5 				"/>
			</g>
		</g>
		<g opacity="0.07" clip-path="url(#SVGID_4_)">
			<g>
				<defs>
					<rect id="SVGID_9_" x="-166.283" y="14" width="241.808" height="210"/>
				</defs>
				<clipPath id="SVGID_10_">
					<use xlink:href="#SVGID_9_"  overflow="visible"/>
				</clipPath>
				<polygon clip-path="url(#SVGID_10_)" fill="none" stroke="#000000" stroke-miterlimit="10" points="-105.543,223.5 
					-165.706,119 -105.543,14.5 14.784,14.5 74.947,119 14.784,223.5 				"/>
			</g>
		</g>
		<g opacity="0.07" clip-path="url(#SVGID_4_)">
			<g>
				<defs>
					<rect id="SVGID_11_" x="14.31" y="117" width="241.807" height="211"/>
				</defs>
				<clipPath id="SVGID_12_">
					<use xlink:href="#SVGID_11_"  overflow="visible"/>
				</clipPath>
				<polygon clip-path="url(#SVGID_12_)" fill="none" stroke="#000000" stroke-miterlimit="10" points="75.049,327.5 14.886,222.5 
					75.049,117.5 195.376,117.5 255.539,222.5 195.376,327.5 				"/>
			</g>
		</g>
		<g opacity="0.07" clip-path="url(#SVGID_4_)">
			<g>
				<defs>
					<rect id="SVGID_13_" x="14.309" y="327" width="241.808" height="210"/>
				</defs>
				<clipPath id="SVGID_14_">
					<use xlink:href="#SVGID_13_"  overflow="visible"/>
				</clipPath>
				<polygon clip-path="url(#SVGID_14_)" fill="none" stroke="#000000" stroke-miterlimit="10" points="75.049,536.5 14.886,432 
					75.049,327.5 195.376,327.5 255.539,432 195.376,536.5 				"/>
			</g>
		</g>
		<g opacity="0.07" clip-path="url(#SVGID_4_)">
			<g>
				<defs>
					<rect id="SVGID_15_" x="-166.283" y="223" width="241.808" height="210"/>
				</defs>
				<clipPath id="SVGID_16_">
					<use xlink:href="#SVGID_15_"  overflow="visible"/>
				</clipPath>
				<polygon clip-path="url(#SVGID_16_)" fill="none" stroke="#000000" stroke-miterlimit="10" points="-105.543,432.5 
					-165.706,328 -105.543,223.5 14.784,223.5 74.947,328 14.784,432.5 				"/>
			</g>
		</g>
		<g opacity="0.07" clip-path="url(#SVGID_4_)">
			<g>
				<defs>
					<rect id="SVGID_17_" x="917.27" y="14" width="241.811" height="210"/>
				</defs>
				<clipPath id="SVGID_18_">
					<use xlink:href="#SVGID_17_"  overflow="visible"/>
				</clipPath>
				<polygon clip-path="url(#SVGID_18_)" fill="none" stroke="#000000" stroke-miterlimit="10" points="978.01,223.5 917.847,119 
					978.01,14.5 1098.337,14.5 1158.5,119 1098.337,223.5 				"/>
			</g>
		</g>
		<g opacity="0.07" clip-path="url(#SVGID_4_)">
			<g>
				<defs>
					<rect id="SVGID_19_" x="736.675" y="-89" width="241.813" height="207"/>
				</defs>
				<clipPath id="SVGID_20_">
					<use xlink:href="#SVGID_19_"  overflow="visible"/>
				</clipPath>
				<polygon clip-path="url(#SVGID_20_)" fill="none" stroke="#000000" stroke-miterlimit="10" points="797.418,117.5 737.254,14.5 
					797.418,-88.5 917.745,-88.5 977.908,14.5 917.745,117.5 				"/>
			</g>
		</g>
		<g opacity="0.07" clip-path="url(#SVGID_4_)">
			<g>
				<defs>
					<rect id="SVGID_21_" x="556.085" y="14" width="241.808" height="210"/>
				</defs>
				<clipPath id="SVGID_22_">
					<use xlink:href="#SVGID_21_"  overflow="visible"/>
				</clipPath>
				<polygon clip-path="url(#SVGID_22_)" fill="none" stroke="#000000" stroke-miterlimit="10" points="616.825,223.5 556.662,119 
					616.825,14.5 737.152,14.5 797.316,119 737.152,223.5 				"/>
			</g>
		</g>
		<g opacity="0.07" clip-path="url(#SVGID_4_)">
			<g>
				<defs>
					<rect id="SVGID_23_" x="375.491" y="-89" width="241.812" height="207"/>
				</defs>
				<clipPath id="SVGID_24_">
					<use xlink:href="#SVGID_23_"  overflow="visible"/>
				</clipPath>
				<polygon clip-path="url(#SVGID_24_)" fill="none" stroke="#000000" stroke-miterlimit="10" points="436.233,117.5 376.07,14.5 
					436.233,-88.5 556.561,-88.5 616.724,14.5 556.561,117.5 				"/>
			</g>
		</g>
		<g opacity="0.07" clip-path="url(#SVGID_4_)">
			<g>
				<defs>
					<rect id="SVGID_25_" x="194.901" y="14" width="241.808" height="210"/>
				</defs>
				<clipPath id="SVGID_26_">
					<use xlink:href="#SVGID_25_"  overflow="visible"/>
				</clipPath>
				<polygon clip-path="url(#SVGID_26_)" fill="none" stroke="#000000" stroke-miterlimit="10" points="255.642,223.5 195.478,119 
					255.642,14.5 375.968,14.5 436.132,119 375.968,223.5 				"/>
			</g>
		</g>
		<g opacity="0.07" clip-path="url(#SVGID_4_)">
			<g>
				<defs>
					<rect id="SVGID_27_" x="14.307" y="-89" width="241.813" height="207"/>
				</defs>
				<clipPath id="SVGID_28_">
					<use xlink:href="#SVGID_27_"  overflow="visible"/>
				</clipPath>
				<polygon clip-path="url(#SVGID_28_)" fill="none" stroke="#000000" stroke-miterlimit="10" points="75.049,117.5 14.886,14.5 
					75.049,-88.5 195.376,-88.5 255.539,14.5 195.376,117.5 				"/>
			</g>
		</g>
		<g opacity="0.07" clip-path="url(#SVGID_4_)">
			<g>
				<defs>
					<rect id="SVGID_29_" x="917.269" y="432" width="241.812" height="209"/>
				</defs>
				<clipPath id="SVGID_30_">
					<use xlink:href="#SVGID_29_"  overflow="visible"/>
				</clipPath>
				<polygon clip-path="url(#SVGID_30_)" fill="none" stroke="#000000" stroke-miterlimit="10" points="978.01,640.5 917.847,536.5 
					978.01,432.5 1098.337,432.5 1158.5,536.5 1098.337,640.5 				"/>
			</g>
		</g>
		<g opacity="0.07" clip-path="url(#SVGID_4_)">
			<g>
				<defs>
					<rect id="SVGID_31_" x="917.27" y="640" width="241.811" height="211"/>
				</defs>
				<clipPath id="SVGID_32_">
					<use xlink:href="#SVGID_31_"  overflow="visible"/>
				</clipPath>
				<polygon clip-path="url(#SVGID_32_)" fill="none" stroke="#000000" stroke-miterlimit="10" points="978.01,850.5 917.847,745.5 
					978.01,640.5 1098.337,640.5 1158.5,745.5 1098.337,850.5 				"/>
			</g>
		</g>
		<g opacity="0.07" clip-path="url(#SVGID_4_)">
			<g>
				<defs>
					<rect id="SVGID_33_" x="736.676" y="536" width="241.812" height="208"/>
				</defs>
				<clipPath id="SVGID_34_">
					<use xlink:href="#SVGID_33_"  overflow="visible"/>
				</clipPath>
				<polygon clip-path="url(#SVGID_34_)" fill="none" stroke="#000000" stroke-miterlimit="10" points="797.418,743.5 737.254,640 
					797.418,536.5 917.745,536.5 977.908,640 917.745,743.5 				"/>
			</g>
		</g>
		<g opacity="0.07" clip-path="url(#SVGID_4_)">
			<g>
				<defs>
					<rect id="SVGID_35_" x="917.27" y="223" width="241.811" height="210"/>
				</defs>
				<clipPath id="SVGID_36_">
					<use xlink:href="#SVGID_35_"  overflow="visible"/>
				</clipPath>
				<polygon clip-path="url(#SVGID_36_)" fill="none" stroke="#000000" stroke-miterlimit="10" points="978.01,432.5 917.847,328 
					978.01,223.5 1098.337,223.5 1158.5,328 1098.337,432.5 				"/>
			</g>
		</g>
		<g opacity="0.07" clip-path="url(#SVGID_4_)">
			<g>
				<defs>
					<rect id="SVGID_37_" x="556.085" y="432" width="241.809" height="209"/>
				</defs>
				<clipPath id="SVGID_38_">
					<use xlink:href="#SVGID_37_"  overflow="visible"/>
				</clipPath>
				<polygon clip-path="url(#SVGID_38_)" fill="none" stroke="#000000" stroke-miterlimit="10" points="616.825,640.5 
					556.662,536.5 616.825,432.5 737.152,432.5 797.316,536.5 737.152,640.5 				"/>
			</g>
		</g>
		<g opacity="0.07" clip-path="url(#SVGID_4_)">
			<g>
				<defs>
					<rect id="SVGID_39_" x="556.086" y="640" width="241.806" height="211"/>
				</defs>
				<clipPath id="SVGID_40_">
					<use xlink:href="#SVGID_39_"  overflow="visible"/>
				</clipPath>
				<polygon clip-path="url(#SVGID_40_)" fill="none" stroke="#000000" stroke-miterlimit="10" points="616.825,850.5 
					556.662,745.5 616.825,640.5 737.152,640.5 797.316,745.5 737.152,850.5 				"/>
			</g>
		</g>
		<g opacity="0.07" clip-path="url(#SVGID_4_)">
			<g>
				<defs>
					<rect id="SVGID_41_" x="375.492" y="536" width="241.81" height="208"/>
				</defs>
				<clipPath id="SVGID_42_">
					<use xlink:href="#SVGID_41_"  overflow="visible"/>
				</clipPath>
				<polygon clip-path="url(#SVGID_42_)" fill="none" stroke="#000000" stroke-miterlimit="10" points="436.233,743.5 376.07,640 
					436.233,536.5 556.561,536.5 616.724,640 556.561,743.5 				"/>
			</g>
		</g>
		<g opacity="0.07" clip-path="url(#SVGID_4_)">
			<g>
				<defs>
					<rect id="SVGID_43_" x="194.9" y="432" width="241.809" height="209"/>
				</defs>
				<clipPath id="SVGID_44_">
					<use xlink:href="#SVGID_43_"  overflow="visible"/>
				</clipPath>
				<polygon clip-path="url(#SVGID_44_)" fill="none" stroke="#000000" stroke-miterlimit="10" points="255.642,640.5 
					195.478,536.5 255.642,432.5 375.968,432.5 436.132,536.5 375.968,640.5 				"/>
			</g>
		</g>
		<g opacity="0.07" clip-path="url(#SVGID_4_)">
			<g>
				<defs>
					<rect id="SVGID_45_" x="194.902" y="640" width="241.806" height="211"/>
				</defs>
				<clipPath id="SVGID_46_">
					<use xlink:href="#SVGID_45_"  overflow="visible"/>
				</clipPath>
				<polygon clip-path="url(#SVGID_46_)" fill="none" stroke="#000000" stroke-miterlimit="10" points="255.642,850.5 
					195.478,745.5 255.642,640.5 375.968,640.5 436.132,745.5 375.968,850.5 				"/>
			</g>
		</g>
		<g opacity="0.07" clip-path="url(#SVGID_4_)">
			<g>
				<defs>
					<rect id="SVGID_47_" x="14.308" y="536" width="241.811" height="208"/>
				</defs>
				<clipPath id="SVGID_48_">
					<use xlink:href="#SVGID_47_"  overflow="visible"/>
				</clipPath>
				<polygon clip-path="url(#SVGID_48_)" fill="none" stroke="#000000" stroke-miterlimit="10" points="75.049,743.5 14.886,640 
					75.049,536.5 195.376,536.5 255.539,640 195.376,743.5 				"/>
			</g>
		</g>
		<g opacity="0.07" clip-path="url(#SVGID_4_)">
			<g>
				<defs>
					<rect id="SVGID_49_" x="736.678" y="117" width="241.807" height="211"/>
				</defs>
				<clipPath id="SVGID_50_">
					<use xlink:href="#SVGID_49_"  overflow="visible"/>
				</clipPath>
				<polygon clip-path="url(#SVGID_50_)" fill="none" stroke="#000000" stroke-miterlimit="10" points="797.418,327.5 
					737.254,222.5 797.418,117.5 917.745,117.5 977.908,222.5 917.745,327.5 				"/>
			</g>
		</g>
		<g opacity="0.07" clip-path="url(#SVGID_4_)">
			<g>
				<defs>
					<rect id="SVGID_51_" x="736.677" y="327" width="241.809" height="210"/>
				</defs>
				<clipPath id="SVGID_52_">
					<use xlink:href="#SVGID_51_"  overflow="visible"/>
				</clipPath>
				<polygon clip-path="url(#SVGID_52_)" fill="none" stroke="#000000" stroke-miterlimit="10" points="797.418,536.5 737.254,432 
					797.418,327.5 917.745,327.5 977.908,432 917.745,536.5 				"/>
			</g>
		</g>
		<g opacity="0.07" clip-path="url(#SVGID_4_)">
			<g>
				<defs>
					<rect id="SVGID_53_" x="556.085" y="223" width="241.808" height="210"/>
				</defs>
				<clipPath id="SVGID_54_">
					<use xlink:href="#SVGID_53_"  overflow="visible"/>
				</clipPath>
				<polygon clip-path="url(#SVGID_54_)" fill="none" stroke="#000000" stroke-miterlimit="10" points="616.825,432.5 556.662,328 
					616.825,223.5 737.152,223.5 797.316,328 737.152,432.5 				"/>
			</g>
		</g>
		<g opacity="0.07" clip-path="url(#SVGID_4_)">
			<g>
				<defs>
					<rect id="SVGID_55_" x="375.494" y="117" width="241.806" height="211"/>
				</defs>
				<clipPath id="SVGID_56_">
					<use xlink:href="#SVGID_55_"  overflow="visible"/>
				</clipPath>
				<polygon clip-path="url(#SVGID_56_)" fill="none" stroke="#000000" stroke-miterlimit="10" points="436.233,327.5 376.07,222.5 
					436.233,117.5 556.561,117.5 616.724,222.5 556.561,327.5 				"/>
			</g>
		</g>
		<g opacity="0.07" clip-path="url(#SVGID_4_)">
			<g>
				<defs>
					<rect id="SVGID_57_" x="375.493" y="327" width="241.808" height="210"/>
				</defs>
				<clipPath id="SVGID_58_">
					<use xlink:href="#SVGID_57_"  overflow="visible"/>
				</clipPath>
				<polygon clip-path="url(#SVGID_58_)" fill="none" stroke="#000000" stroke-miterlimit="10" points="436.233,536.5 376.07,432 
					436.233,327.5 556.561,327.5 616.724,432 556.561,536.5 				"/>
			</g>
		</g>
		<g opacity="0.07" clip-path="url(#SVGID_4_)">
			<g>
				<defs>
					<rect id="SVGID_59_" x="194.901" y="223" width="241.808" height="210"/>
				</defs>
				<clipPath id="SVGID_60_">
					<use xlink:href="#SVGID_59_"  overflow="visible"/>
				</clipPath>
				<polygon clip-path="url(#SVGID_60_)" fill="none" stroke="#000000" stroke-miterlimit="10" points="255.642,432.5 195.478,328 
					255.642,223.5 375.968,223.5 436.132,328 375.968,432.5 				"/>
			</g>
		</g>
	</g>
</g>
</svg>
